<svg width="19" height="19" viewBox="0 0 19 19" fill="none" xmlns="http://www.w3.org/2000/svg">
<path fill-rule="evenodd" clip-rule="evenodd" d="M18.6944 18.6951C19.1019 18.2885 19.1019 11.4314 18.6944 11.0248C18.287 10.6183 11.4155 10.6183 11.0081 11.0248C10.6007 11.4314 10.6007 18.2885 11.0081 18.6951C11.4155 19.1016 18.287 19.1016 18.6944 18.6951ZM7.99192 18.6951C8.39935 18.2885 8.39935 11.4314 7.99192 11.0248C7.5845 10.6183 0.712997 10.6183 0.305572 11.0248C-0.101853 11.4314 -0.101852 18.2885 0.305572 18.6951C0.712997 19.1016 7.5845 19.1016 7.99192 18.6951ZM12.1756 12.1899L17.5269 12.1899L17.5269 17.53L12.1756 17.53L12.1756 12.1899ZM1.47312 12.1899L6.82437 12.1899L6.82438 17.53L1.47312 17.53L1.47312 12.1899ZM18.6944 8.01499C19.1019 7.60842 19.1019 0.751324 18.6944 0.344751C18.287 -0.061819 11.4155 -0.0618184 11.0081 0.344752C10.6007 0.751324 10.6007 7.60842 11.0081 8.01499C11.4155 8.42156 18.287 8.42156 18.6944 8.01499ZM12.1756 1.50985L17.5269 1.50985L17.5269 6.84989L12.1756 6.84989L12.1756 1.50985Z" fill="#0093AD"/>
<path d="M7.99192 0.304927C8.39934 0.711497 8.39935 7.5686 7.99192 7.97517C7.5845 8.38174 0.712995 8.38174 0.30557 7.97517C-0.101855 7.5686 -0.101856 0.711498 0.305569 0.304928C0.712994 -0.101643 7.58449 -0.101644 7.99192 0.304927Z" fill="#27486A"/>
</svg>
